HIERARCHY
ROOT root
{
	OFFSET	0	13.1	24.9
	CHANNELS 6  Xposition Yposition Zposition Xrotation Yrotation Zrotation
	JOINT spine_1
	{
		OFFSET	0	9.99999	0
		CHANNELS 3  Xrotation Yrotation Zrotation
		JOINT spine_2
		{
			OFFSET	0	112	-10
			CHANNELS 3  Xrotation Yrotation Zrotation
			JOINT spine_3
			{
				OFFSET	0	206.5	19.3
				CHANNELS 3  Xrotation Yrotation Zrotation
				JOINT spine_4
				{
					OFFSET	0	110.4	14.6
					CHANNELS 3  Xrotation Yrotation Zrotation
					JOINT neck_1
					{
						OFFSET	0	71.8	-50.3
						CHANNELS 3  Xrotation Yrotation Zrotation
						JOINT neck_2
						{
							OFFSET	0	86.2	-25.8
							CHANNELS 3  Xrotation Yrotation Zrotation
							JOINT head_ee
							{
								OFFSET	0	179.8	-8.7
								CHANNELS 3  Xrotation Yrotation Zrotation
								End Site
								{
									OFFSET	1	0	0
								}
							}
						}
					}
					JOINT left_clavicle
					{
						OFFSET	-43.2	22.4	-70.8
						CHANNELS 3  Xrotation Yrotation Zrotation
						JOINT left_shoulder
						{
							OFFSET	-93.9	-5.79999	48.7
							CHANNELS 3  Xrotation Yrotation Zrotation
							JOINT left_elbow
							{
								OFFSET	-291.4	-30.8	15.2
								CHANNELS 3  Xrotation Yrotation Zrotation
								JOINT left_lowarm_twist
								{
									OFFSET	-110.7	-3.89999	13.6
									CHANNELS 3  Xrotation Yrotation Zrotation
									JOINT left_hand
									{
										OFFSET	-110.7	-3.89999	13.6
										CHANNELS 3  Xrotation Yrotation Zrotation
										JOINT left_ee
										{
											OFFSET	-80.8	-5.10001	12.1
											CHANNELS 3  Xrotation Yrotation Zrotation
											End Site
											{
												OFFSET	1	0	0
											}
										}
									}
								}
							}
						}
					}
					JOINT right_clavicle
					{
						OFFSET	43.2	22.4	-70.8
						CHANNELS 3  Xrotation Yrotation Zrotation
						JOINT right_shoulder
						{
							OFFSET	93.9	-5.79999	48.7
							CHANNELS 3  Xrotation Yrotation Zrotation
							JOINT right_elbow
							{
								OFFSET	291.4	-30.8	15.2
								CHANNELS 3  Xrotation Yrotation Zrotation
								JOINT right_lowarm_twist
								{
									OFFSET	110.7	-3.89999	13.6
									CHANNELS 3  Xrotation Yrotation Zrotation
									JOINT right_hand
									{
										OFFSET	110.7	-3.89999	13.6
										CHANNELS 3  Xrotation Yrotation Zrotation
										JOINT right_ee
										{
											OFFSET	80.8	-5.10001	12.1
											CHANNELS 3  Xrotation Yrotation Zrotation
											End Site
											{
												OFFSET	1	0	0
											}
										}
									}
								}
							}
						}
					}
				}
			}
		}
	}
	JOINT left_hip
	{
		OFFSET	-82.8	-127.5	0.300001
		CHANNELS 3  Xrotation Yrotation Zrotation
		JOINT left_knee
		{
			OFFSET	-28.2	-396.7	2.2
			CHANNELS 3  Xrotation Yrotation Zrotation
			JOINT left_ankle
			{
				OFFSET	-11.7	-411.3	35.4
				CHANNELS 3  Xrotation Yrotation Zrotation
				JOINT left_toes
				{
					OFFSET	0	-60	-88.6
					CHANNELS 3  Xrotation Yrotation Zrotation
					JOINT left_foot_ee
					{
						OFFSET	-22.5	-16.5	-42.2
						CHANNELS 3  Xrotation Yrotation Zrotation
						End Site
						{
							OFFSET	1	0	0
						}
					}
				}
			}
		}
	}
	JOINT right_hip
	{
		OFFSET	82.8	-127.5	0.300001
		CHANNELS 3  Xrotation Yrotation Zrotation
		JOINT right_knee
		{
			OFFSET	28.2	-396.7	2.2
			CHANNELS 3  Xrotation Yrotation Zrotation
			JOINT right_ankle
			{
				OFFSET	11.7	-411.3	35.4
				CHANNELS 3  Xrotation Yrotation Zrotation
				JOINT right_toes
				{
					OFFSET	0	-60	-88.6
					CHANNELS 3  Xrotation Yrotation Zrotation
					JOINT right_foot_ee
					{
						OFFSET	22.5	-16.5	-42.2
						CHANNELS 3  Xrotation Yrotation Zrotation
						End Site
						{
							OFFSET	1	0	0
						}
					}
				}
			}
		}
	}
}
MOTION
Frames: 10
Frame Time: 0.02
391.555 721.904 -1204.45 160.388655992 -86.6824477338 170.408497088 -1.51258 -1.25529 -4.60352 -1.5013 -0.960138 -4.67386 -1.41049 0.160306 -4.76855 -1.44172 -0.593949 -4.73421 -5.74358 4.07214 3.79604 -5.70554 4.70251 4.58503 -0.0 0.0 -0.0 3.81102 -27.2134 5.15325 3.47655 -27.4931 77.0505 0.512179 -14.2368 0.0639627 15.5628 0.283472 -1.96171 -0.985142 -7.13895 -9.72497 -0.0 0.0 -0.0 -4.54426 -14.7858 5.61367 4.62806 23.1454 -71.3984 1.22928 31.3381 -0.344831 47.6955 0.808815 5.86546 -3.50694 -28.724 7.71545 0.0 0.0 0.0 -10.0426 -16.6573 -13.9332 4.29841 -0.200723 -0.628806 29.057 24.0274 -3.97539 29.3545 -0.0 -0.0 -0.0 0.0 -0.0 5.84571 -2.89098 -16.757 -14.6471 -0.320986 -2.21874 39.34 -8.95867 4.81134 -31.8842 0.0 0.0 0.0 0.0 0.0 
390.210977257 722.168 -1209.84294121 168.074824456 -83.5178144877 178.292647784 -1.53516 -1.30803 -4.56266 -1.52415 -1.01537 -4.63642 -1.42948 0.0992239 -4.74503 -1.4603 -0.650567 -4.70137 -6.13662 3.79369 3.41944 -6.10619 4.50186 4.16246 -0.0 0.0 -0.0 4.72435 -27.6211 7.09371 1.33755 -27.1307 74.4124 0.534996 -14.8435 0.069691 14.8124 0.282108 -1.86587 -0.996637 -6.67534 -9.60189 -0.0 0.0 -0.0 -4.50718 -14.2761 5.6715 5.25372 23.0192 -71.6076 1.27193 32.2127 -0.367291 47.5728 0.800579 5.85209 -3.47357 -28.988 7.37721 0.0 0.0 0.0 -9.64851 -15.993 -12.7799 4.31855 -0.201774 -0.631715 29.8744 22.955 -4.04638 30.2949 -0.0 -0.0 -0.0 0.0 -0.0 5.38375 -7.99645 -16.1739 -16.053 -0.321756 -2.43444 39.6049 -7.58539 4.82827 -31.1035 0.0 0.0 0.0 0.0 0.0 
390.321865699 722.168 -1209.8693719 169.888752173 -82.3641493863 -179.879665033 -1.53516 -1.30803 -4.56266 -1.52415 -1.01537 -4.63642 -1.42948 0.0992239 -4.74503 -1.4603 -0.650567 -4.70137 -6.13662 3.79369 3.41944 -6.10619 4.50186 4.16246 -0.0 0.0 -0.0 4.72435 -27.6211 7.09371 1.33755 -27.1307 74.4124 0.534996 -14.8435 0.069691 14.8124 0.282108 -1.86587 -0.996637 -6.67534 -9.60189 -0.0 0.0 -0.0 -4.50718 -14.2761 5.6715 5.25372 23.0192 -71.6076 1.27193 32.2127 -0.367291 47.5728 0.800579 5.85209 -3.47357 -28.988 7.37721 0.0 0.0 0.0 -9.64851 -15.993 -12.7799 4.31855 -0.201774 -0.631715 29.8744 22.955 -4.04638 30.2949 -0.0 -0.0 -0.0 0.0 -0.0 5.38375 -7.99645 -16.1739 -16.053 -0.321756 -2.43444 39.6049 -7.58539 4.82827 -31.1035 0.0 0.0 0.0 0.0 0.0 
390.51850432 722.168 -1209.91039272 172.026399521 -80.3186457253 -177.717724092 -1.53516 -1.30803 -4.56266 -1.52415 -1.01537 -4.63642 -1.42948 0.0992239 -4.74503 -1.4603 -0.650567 -4.70137 -6.13662 3.79369 3.41944 -6.10619 4.50186 4.16246 -0.0 0.0 -0.0 4.72435 -27.6211 7.09371 1.33755 -27.1307 74.4124 0.534996 -14.8435 0.069691 14.8124 0.282108 -1.86587 -0.996637 -6.67534 -9.60189 -0.0 0.0 -0.0 -4.50718 -14.2761 5.6715 5.25372 23.0192 -71.6076 1.27193 32.2127 -0.367291 47.5728 0.800579 5.85209 -3.47357 -28.988 7.37721 0.0 0.0 0.0 -9.64851 -15.993 -12.7799 4.31855 -0.201774 -0.631715 29.8744 22.955 -4.04638 30.2949 -0.0 -0.0 -0.0 0.0 -0.0 5.38375 -7.99645 -16.1739 -16.053 -0.321756 -2.43444 39.6049 -7.58539 4.82827 -31.1035 0.0 0.0 0.0 0.0 0.0 
411.358379953 723.948 -1233.84891072 172.62362245 -72.7705170347 -176.245936216 -1.48593 -0.398412 -4.61823 -1.47407 -0.104057 -4.63418 -1.45569 0.989584 -4.52871 -1.4842 0.262743 -4.62791 -8.30102 0.793509 1.14591 -8.29752 0.677565 1.3087 -0.0 0.0 -0.0 6.39098 -28.2346 10.6573 2.00468 -29.9498 68.3285 0.700156 -19.1285 0.117974 7.66795 0.206381 -0.957024 -0.785967 1.71057 -4.508 -0.0 0.0 -0.0 -4.42151 -15.7378 5.19192 0.549663 16.449 -71.6255 1.22179 31.1826 -0.340941 45.6606 0.675956 5.64146 -2.66035 -25.3662 4.91988 0.0 0.0 0.0 -10.3609 -12.7124 -12.2155 5.32904 -0.255838 -0.777257 38.2156 26.6681 -5.04777 33.4905 -0.0 -0.0 -0.0 0.0 -0.0 8.54797 -26.75 -11.8182 -38.2349 0.358309 -5.74959 37.1875 7.60452 4.72451 -21.9391 0.0 0.0 0.0 0.0 0.0 
411.478221896 723.948 -1233.76782799 172.719141936 -72.5385444211 -176.145866194 -1.48593 -0.398412 -4.61823 -1.47407 -0.104057 -4.63418 -1.45569 0.989584 -4.52871 -1.4842 0.262743 -4.62791 -8.30102 0.793509 1.14591 -8.29752 0.677565 1.3087 -0.0 0.0 -0.0 6.39098 -28.2346 10.6573 2.00468 -29.9498 68.3285 0.700156 -19.1285 0.117974 7.66795 0.206381 -0.957024 -0.785967 1.71057 -4.508 -0.0 0.0 -0.0 -4.42151 -15.7378 5.19192 0.549663 16.449 -71.6255 1.22179 31.1826 -0.340941 45.6606 0.675956 5.64146 -2.66035 -25.3662 4.91988 0.0 0.0 0.0 -10.3609 -12.7124 -12.2155 5.32904 -0.255838 -0.777257 38.2156 26.6681 -5.04777 33.4905 -0.0 -0.0 -0.0 0.0 -0.0 8.54797 -26.75 -11.8182 -38.2349 0.358309 -5.74959 37.1875 7.60452 4.72451 -21.9391 0.0 0.0 0.0 0.0 0.0 
411.425795861 723.948 -1233.80338619 172.677642884 -72.6401080898 -176.189357816 -1.48593 -0.398412 -4.61823 -1.47407 -0.104057 -4.63418 -1.45569 0.989584 -4.52871 -1.4842 0.262743 -4.62791 -8.30102 0.793509 1.14591 -8.29752 0.677565 1.3087 -0.0 0.0 -0.0 6.39098 -28.2346 10.6573 2.00468 -29.9498 68.3285 0.700156 -19.1285 0.117974 7.66795 0.206381 -0.957024 -0.785967 1.71057 -4.508 -0.0 0.0 -0.0 -4.42151 -15.7378 5.19192 0.549663 16.449 -71.6255 1.22179 31.1826 -0.340941 45.6606 0.675956 5.64146 -2.66035 -25.3662 4.91988 0.0 0.0 0.0 -10.3609 -12.7124 -12.2155 5.32904 -0.255838 -0.777257 38.2156 26.6681 -5.04777 33.4905 -0.0 -0.0 -0.0 0.0 -0.0 8.54797 -26.75 -11.8182 -38.2349 0.358309 -5.74959 37.1875 7.60452 4.72451 -21.9391 0.0 0.0 0.0 0.0 0.0 
411.430880175 723.948 -1233.79994372 172.681686885 -72.6302641734 -176.185120704 -1.48593 -0.398412 -4.61823 -1.47407 -0.104057 -4.63418 -1.45569 0.989584 -4.52871 -1.4842 0.262743 -4.62791 -8.30102 0.793509 1.14591 -8.29752 0.677565 1.3087 -0.0 0.0 -0.0 6.39098 -28.2346 10.6573 2.00468 -29.9498 68.3285 0.700156 -19.1285 0.117974 7.66795 0.206381 -0.957024 -0.785967 1.71057 -4.508 -0.0 0.0 -0.0 -4.42151 -15.7378 5.19192 0.549663 16.449 -71.6255 1.22179 31.1826 -0.340941 45.6606 0.675956 5.64146 -2.66035 -25.3662 4.91988 0.0 0.0 0.0 -10.3609 -12.7124 -12.2155 5.32904 -0.255838 -0.777257 38.2156 26.6681 -5.04777 33.4905 -0.0 -0.0 -0.0 0.0 -0.0 8.54797 -26.75 -11.8182 -38.2349 0.358309 -5.74959 37.1875 7.60452 4.72451 -21.9391 0.0 0.0 0.0 0.0 0.0 
411.264030205 723.948 -1233.91224597 172.546753449 -72.9526620963 -176.326377039 -1.48593 -0.398412 -4.61823 -1.47407 -0.104057 -4.63418 -1.45569 0.989584 -4.52871 -1.4842 0.262743 -4.62791 -8.30102 0.793509 1.14591 -8.29752 0.677565 1.3087 -0.0 0.0 -0.0 6.39098 -28.2346 10.6573 2.00468 -29.9498 68.3285 0.700156 -19.1285 0.117974 7.66795 0.206381 -0.957024 -0.785967 1.71057 -4.508 -0.0 0.0 -0.0 -4.42151 -15.7378 5.19192 0.549663 16.449 -71.6255 1.22179 31.1826 -0.340941 45.6606 0.675956 5.64146 -2.66035 -25.3662 4.91988 0.0 0.0 0.0 -10.3609 -12.7124 -12.2155 5.32904 -0.255838 -0.777257 38.2156 26.6681 -5.04777 33.4905 -0.0 -0.0 -0.0 0.0 -0.0 8.54797 -26.75 -11.8182 -38.2349 0.358309 -5.74959 37.1875 7.60452 4.72451 -21.9391 0.0 0.0 0.0 0.0 0.0 
411.935349977 723.948 -1233.45191621 173.063145718 -71.6472591713 -175.784360247 -1.48593 -0.398412 -4.61823 -1.47407 -0.104057 -4.63418 -1.45569 0.989584 -4.52871 -1.4842 0.262743 -4.62791 -8.30102 0.793509 1.14591 -8.29752 0.677565 1.3087 -0.0 0.0 -0.0 6.39098 -28.2346 10.6573 2.00468 -29.9498 68.3285 0.700156 -19.1285 0.117974 7.66795 0.206381 -0.957024 -0.785967 1.71057 -4.508 -0.0 0.0 -0.0 -4.42151 -15.7378 5.19192 0.549663 16.449 -71.6255 1.22179 31.1826 -0.340941 45.6606 0.675956 5.64146 -2.66035 -25.3662 4.91988 0.0 0.0 0.0 -10.3609 -12.7124 -12.2155 5.32904 -0.255838 -0.777257 38.2156 26.6681 -5.04777 33.4905 -0.0 -0.0 -0.0 0.0 -0.0 8.54797 -26.75 -11.8182 -38.2349 0.358309 -5.74959 37.1875 7.60452 4.72451 -21.9391 0.0 0.0 0.0 0.0 0.0 
